# File created by Blade
# Date/Time:  Wed Jan 21 15:55:51 2015
# Frame Rate: 120.000 fps
#------------------------------------------------------
:FULLY-SPECIFIED
:DEGREES
503
root 24.883568 13.821485 -12.028167 -176.410534 14.906474 -200.545036
Spine 51.298905 -14.278022 4.181611
Head -6.190954 -10.067854 8.104407
LeftShoulder 12.399975 -34.912541 4.895908
LeftArm 21.561934 10.710845 -55.133485
LeftForeArm -35.289842 -0.000000 26.978956
LeftHand -13.695378 -0.000000 1.123555
LeftHandThumb1 -26.253704 0.000000 33.147579
RightShoulder 2.002161 -2.616556 5.280074
RightArm 36.536265 21.965497 69.438149
RightForeArm 19.145237 -0.000000 7.367189
RightHand 3.895959 0.000000 -8.087520
RightHandThumb1 -24.326973 -0.000000 -32.862282
LeftUpLeg 2.622966 32.315715 44.280536
LeftLeg 2.290335 -0.000000 -0.000000
LeftFoot -0.794561 20.224269 -24.645576
LeftToeBase 45.233616 -0.000000 -0.000000
RightUpLeg -111.642543 -12.274202 -0.438040
RightLeg 136.697745 -0.000000 -0.000000
RightFoot -67.705645 -36.016376 36.049972
RightToeBase 19.161748 -0.000000 -0.000000
504
root 24.881331 13.822580 -12.016843 -176.610223 14.819736 -200.564107
Spine 50.948641 -14.447997 4.597041
Head -6.130232 -10.065689 8.495949
LeftShoulder 12.020143 -34.920669 5.409964
LeftArm 21.431981 9.698524 -54.458420
LeftForeArm -33.820951 -0.000000 26.951464
LeftHand -13.472555 -0.000000 0.743274
LeftHandThumb1 -26.253704 0.000000 33.147579
RightShoulder 1.774326 -2.530345 5.030824
RightArm 36.687558 22.283134 69.883375
RightForeArm 18.760101 -0.000000 6.948205
RightHand 4.015666 -0.000000 -8.371546
RightHandThumb1 -24.326973 -0.000000 -32.862282
LeftUpLeg 2.737110 32.138998 44.298402
LeftLeg 2.176891 -0.000000 -0.000000
LeftFoot -0.719597 20.270967 -24.614538
LeftToeBase 45.141969 -0.000000 -0.000000
RightUpLeg -111.458751 -12.295851 -0.510062
RightLeg 136.695910 -0.000000 -0.000000
RightFoot -67.748262 -35.826122 36.234318
RightToeBase 19.359643 -0.000000 -0.000000
505
root 24.876818 13.822281 -12.006694 -176.739669 14.727796 -200.642258
Spine 50.463641 -14.667833 4.910130
Head -5.919373 -9.924325 8.876006
LeftShoulder 11.543614 -34.706177 5.838716
LeftArm 21.396869 9.027221 -53.297777
LeftForeArm -32.712113 -0.000000 27.203159
LeftHand -13.504239 0.000000 0.871425
LeftHandThumb1 -26.253704 0.000000 33.147579
RightShoulder 1.639837 -2.476355 4.825210
RightArm 36.822842 22.675439 70.346866
RightForeArm 18.296546 -0.000000 6.538501
RightHand 4.154996 -0.000000 -8.743663
RightHandThumb1 -24.326973 -0.000000 -32.862282
LeftUpLeg 2.767371 32.017939 44.205296
LeftLeg 2.057477 -0.000000 -0.000000
LeftFoot -0.666535 20.361025 -24.614986
LeftToeBase 45.137067 -0.000000 -0.000000
RightUpLeg -111.360758 -12.338894 -0.652204
RightLeg 136.702045 -0.000000 -0.000000
RightFoot -67.685041 -35.910939 36.211786
RightToeBase 19.364351 -0.000000 -0.000000
506
root 24.870393 13.823574 -11.998666 -176.900949 14.640900 -200.725994
Spine 50.047761 -14.883048 5.237921
Head -5.850222 -9.767224 9.249784
LeftShoulder 11.117154 -34.652225 6.274510
LeftArm 21.185706 8.482213 -52.071573
LeftForeArm -31.901592 -0.000000 27.358498
LeftHand -13.195768 -0.000000 0.787581
LeftHandThumb1 -26.253704 0.000000 33.147579
RightShoulder 1.488105 -2.350801 4.525828
RightArm 36.837502 23.055163 70.832683
RightForeArm 17.727622 -0.000000 6.249741
RightHand 4.147246 -0.000000 -8.889054
RightHandThumb1 -24.326973 -0.000000 -32.862282
LeftUpLeg 2.837243 31.852745 44.131176
LeftLeg 1.956659 -0.000000 -0.000000
LeftFoot -0.658638 20.350387 -24.654364
LeftToeBase 45.341105 -0.000000 -0.000000
RightUpLeg -111.235145 -12.395776 -0.808252
RightLeg 136.693719 -0.000000 -0.000000
RightFoot -67.683038 -36.009432 36.206025
RightToeBase 19.753167 -0.000000 -0.000000
